<?xml version="1.0" encoding="utf-8"?>
<!-- Generator: Adobe Illustrator 19.2.1, SVG Export Plug-In . SVG Version: 6.00 Build 0)  -->
<svg version="1.1" id="Layer_1" xmlns="http://www.w3.org/2000/svg" xmlns:xlink="http://www.w3.org/1999/xlink" x="0px" y="0px"
	 viewBox="0 0 103 100" style="enable-background:new 0 0 103 100;" xml:space="preserve">
<style type="text/css">
	.st0{enable-background:new    ;}
	.st1{fill:#fff;}
</style>
<g class="st0">
	<path class="st1" d="M12.9,23.6h-0.1c-7.5,0-12.3-5.1-12.3-11.5c0-6.5,5-11.5,12.5-11.5c7.6,0,12.3,5,12.4,11.5
		C25.5,18.5,20.6,23.6,12.9,23.6z M24,99.5H1.8V32.7H24V99.5z M104,99.5H81.8V63.8c0-9-3.2-15.1-11.2-15.1c-6.1,0-9.8,4.1-11.4,8.1
		c-0.5,1.5-0.7,3.4-0.7,5.5v37.2H36.3c0.3-60.5,0-66.7,0-66.7h22.2v9.7h-0.1c2.9-4.6,8.1-11.2,20.1-11.2c14.6,0,25.5,9.6,25.5,30
		V99.5z"/>
</g>
</svg>
