<?xml version="1.0" encoding="utf-8"?>
<!-- Generator: Adobe Illustrator 19.2.1, SVG Export Plug-In . SVG Version: 6.00 Build 0)  -->
<svg version="1.1" id="Layer_1" xmlns="http://www.w3.org/2000/svg" xmlns:xlink="http://www.w3.org/1999/xlink" x="0px" y="0px"
	 viewBox="0 0 25 22" style="enable-background:new 0 0 25 22;" xml:space="preserve">
<style type="text/css">
	.st0{enable-background:new    ;}
	.st1{fill:#fff;}
</style>
<g class="st0">
	<path class="st1" d="M22.8,6.1c0,0.2,0,0.4,0,0.7c0,6.7-5.1,14.4-14.4,14.4c-2.9,0-5.5-0.8-7.8-2.3c0.4,0,0.8,0.1,1.2,0.1
		c2.4,0,4.5-0.8,6.3-2.2c-2.2,0-4.1-1.5-4.7-3.5c0.3,0,0.6,0.1,1,0.1c0.5,0,0.9-0.1,1.3-0.2c-2.3-0.5-4-2.5-4-5c0,0,0,0,0-0.1
		C2.4,8.5,3.2,8.7,4,8.8C2.7,7.8,1.8,6.3,1.8,4.6C1.8,3.6,2,2.8,2.5,2C5,5.1,8.7,7.1,12.9,7.3c-0.1-0.4-0.1-0.8-0.1-1.2
		c0-2.8,2.2-5,5-5c1.5,0,2.8,0.6,3.7,1.6c1.1-0.2,2.2-0.6,3.2-1.2c-0.4,1.2-1.2,2.2-2.2,2.8c1-0.1,2-0.4,2.9-0.8
		C24.7,4.5,23.8,5.3,22.8,6.1z"/>
</g>
</svg>
